<?xml version="1.0" encoding="iso-8859-1"?>
<!DOCTYPE svg PUBLIC "-//W3C//DTD SVG 1.1//EN" "http://www.w3.org/Graphics/SVG/1.1/DTD/svg11.dtd">
<svg 
 version="1.1" xmlns="http://www.w3.org/2000/svg" xmlns:xlink="http://www.w3.org/1999/xlink" x="0px" y="0px" width="512px"
	 height="512px" viewBox="0 0 512 512" style="enable-background:new 0 0 512 512;" xml:space="preserve"
><g id="7935ec95c421cee6d86eb22ecd113362"><g></g><g fill="#ffffff"><path style="display: inline;" d="M256,0.5C114.893,0.5,0.5,114.893,0.5,256S114.893,511.5,256,511.5S511.5,397.107,511.5,256
		S397.107,0.5,256,0.5z M85.667,182.98c0-27.792,22.71-50.393,50.622-50.393c10.679,0,20.963,3.36,29.534,9.498
		c8.571-6.138,18.859-9.498,29.534-9.498c27.917,0,50.622,22.602,50.622,50.393c0,45.12-78.713,94.312-80.576,94.312
		C163.539,277.292,85.667,228.101,85.667,182.98z M256,436.979c-70.558,0-127.75-42.908-127.75-95.813h255.5
		C383.75,394.071,326.558,436.979,256,436.979z M345.758,277.292c-1.863,0-79.74-49.191-79.74-94.312
		c0-27.792,22.71-50.393,50.622-50.393c10.679,0,20.968,3.36,29.538,9.498c8.57-6.138,18.854-9.498,29.534-9.498
		c27.912,0,50.621,22.602,50.621,50.393C426.333,228.101,347.616,277.292,345.758,277.292z"></path></g></g></svg>