<?xml version="1.0" encoding="iso-8859-1"?>
<!DOCTYPE svg PUBLIC "-//W3C//DTD SVG 1.1//EN" "http://www.w3.org/Graphics/SVG/1.1/DTD/svg11.dtd">
<svg 
 version="1.1" xmlns="http://www.w3.org/2000/svg" xmlns:xlink="http://www.w3.org/1999/xlink" x="0px" y="0px" width="512px"
	 height="512px" viewBox="0 0 512 512" style="enable-background:new 0 0 512 512;" xml:space="preserve"
><g id="afcae5a789ccd549f9c6e2a2f80b420a"><g></g><g fill="#ffffff"><path style="display: inline;" d="M350.141,67.957c65.493,0,118.776,52.957,118.776,118.048
		c0,44.265-36.975,102.961-104.104,165.281c-43.391,40.276-86.635,70.683-110.035,85.896
		c-23.173-15.229-65.896-45.603-108.744-85.813C79.646,289.071,43.083,230.344,43.083,186.005
		c0-65.091,53.286-118.048,118.78-118.048c24.984,0,48.96,7.716,69.335,22.315L256,108.041l24.802-17.769
		C301.179,75.673,325.153,67.957,350.141,67.957 M350.141,25.374c-34.032,0-66.823,10.71-94.141,30.282
		c-27.318-19.572-60.107-30.282-94.137-30.282C72.883,25.374,0.5,97.431,0.5,186.005c0,143.811,248.231,300.621,254.169,300.621
		c5.921,0,256.831-156.811,256.831-300.621C511.5,97.431,439.113,25.374,350.141,25.374L350.141,25.374z"></path></g></g></svg>